<?xml version="1.0" encoding="UTF-8"?> <svg xmlns="http://www.w3.org/2000/svg" width="200" height="200" viewBox="0 0 200 200" fill="none"><g clip-path="url(#clip0_348_15768)"><path d="M69.8434 128.827C85.7428 112.927 85.7428 87.1491 69.8434 71.2496C53.9439 55.3502 28.1659 55.3502 12.2665 71.2496C-3.63295 87.1491 -3.63295 112.927 12.2665 128.827C28.1659 144.726 53.9439 144.726 69.8434 128.827Z" stroke="#1C30E4" stroke-miterlimit="10"></path><path d="M70.8307 127.882C86.209 112.503 86.209 87.57 70.8307 72.1917C55.4523 56.8134 30.5191 56.8134 15.1408 72.1917C-0.237504 87.57 -0.237508 112.503 15.1408 127.882C30.5191 143.26 55.4523 143.26 70.8307 127.882Z" stroke="#1C30E4" stroke-miterlimit="10"></path><path d="M71.8224 126.937C86.6796 112.079 86.6796 87.991 71.8224 73.1337C56.9651 58.2765 32.8768 58.2765 18.0196 73.1337C3.16233 87.991 3.16233 112.079 18.0196 126.937C32.8768 141.794 56.9651 141.794 71.8224 126.937Z" stroke="#1C30E4" stroke-miterlimit="10"></path><path d="M72.8082 125.992C87.1436 111.657 87.1436 88.4145 72.8082 74.0791C58.4728 59.7436 35.2305 59.7436 20.8951 74.0791C6.55963 88.4145 6.55964 111.657 20.8951 125.992C35.2305 140.328 58.4728 140.328 72.8082 125.992Z" stroke="#1C30E4" stroke-miterlimit="10"></path><path d="M73.7989 125.046C87.6133 111.231 87.6133 88.834 73.7989 75.0197C59.9846 61.2053 37.5872 61.2053 23.7728 75.0196C9.9585 88.834 9.9585 111.231 23.7728 125.046C37.5872 138.86 59.9846 138.86 73.7989 125.046Z" stroke="#1C30E4" stroke-miterlimit="10"></path><path d="M74.7872 124.102C88.0805 110.809 88.0805 89.2564 74.7872 75.9632C61.494 62.6699 39.9414 62.6699 26.6482 75.9632C13.3549 89.2564 13.3549 110.809 26.6482 124.102C39.9414 137.396 61.494 137.396 74.7872 124.102Z" stroke="#1C30E4" stroke-miterlimit="10"></path><path d="M75.7765 123.157C88.5487 110.385 88.5487 89.6774 75.7765 76.9052C63.0044 64.1331 42.2966 64.1331 29.5245 76.9052C16.7523 89.6774 16.7523 110.385 29.5245 123.157C42.2966 135.929 63.0044 135.929 75.7765 123.157Z" stroke="#1C30E4" stroke-miterlimit="10"></path><path d="M76.7638 122.21C89.0141 109.959 89.0141 90.0975 76.7638 77.8471C64.5135 65.5968 44.6517 65.5968 32.4014 77.8471C20.1511 90.0975 20.1511 109.959 32.4014 122.21C44.6517 134.46 64.5135 134.46 76.7638 122.21Z" stroke="#1C30E4" stroke-miterlimit="10"></path><path d="M77.7541 121.266C89.4833 109.536 89.4833 90.5194 77.754 78.7902C66.0248 67.0609 47.0079 67.0609 35.2787 78.7902C23.5494 90.5194 23.5494 109.536 35.2787 121.266C47.0079 132.995 66.0248 132.995 77.7541 121.266Z" stroke="#1C30E4" stroke-miterlimit="10"></path><path d="M78.7428 120.321C89.951 109.113 89.951 90.9408 78.7428 79.7327C67.5347 68.5245 49.3627 68.5245 38.1545 79.7327C26.9464 90.9408 26.9464 109.113 38.1545 120.321C49.3627 131.529 67.5347 131.529 78.7428 120.321Z" stroke="#1C30E4" stroke-miterlimit="10"></path><path d="M79.7306 119.375C90.4169 108.688 90.4169 91.3624 79.7306 80.6761C69.0443 69.9897 51.7183 69.9897 41.0319 80.6761C30.3456 91.3624 30.3456 108.688 41.0319 119.375C51.7183 130.061 69.0443 130.061 79.7306 119.375Z" stroke="#1C30E4" stroke-miterlimit="10"></path><path d="M80.7189 118.431C90.8841 108.266 90.8841 91.7848 80.7189 81.6196C70.5537 71.4543 54.0725 71.4543 43.9073 81.6196C33.742 91.7848 33.742 108.266 43.9073 118.431C54.0725 128.596 70.5537 128.596 80.7189 118.431Z" stroke="#1C30E4" stroke-miterlimit="10"></path><path d="M81.7096 117.485C91.3538 107.841 91.3538 92.2043 81.7096 82.5602C72.0655 72.916 56.4292 72.916 46.785 82.5602C37.1409 92.2043 37.1409 107.841 46.785 117.485C56.4292 127.129 72.0655 127.129 81.7096 117.485Z" stroke="#1C30E4" stroke-miterlimit="10"></path><path d="M71.3314 122.803C83.9163 119.96 91.8135 107.454 88.9705 94.8687C86.1275 82.2839 73.6207 74.3866 61.0359 77.2297C48.451 80.0727 40.5538 92.5795 43.3968 105.164C46.2398 117.749 58.7466 125.646 71.3314 122.803Z" stroke="#1C30E4" stroke-miterlimit="10"></path><path d="M72.4694 121.614C84.3926 119.206 92.1058 107.588 89.6973 95.6644C87.2888 83.7412 75.6707 76.028 63.7475 78.4364C51.8243 80.8449 44.1111 92.463 46.5196 104.386C48.9281 116.309 60.5462 124.023 72.4694 121.614Z" stroke="#1C30E4" stroke-miterlimit="10"></path><path d="M76.1578 119.783C87.075 116.408 93.189 104.822 89.8137 93.9043C86.4384 82.9871 74.8521 76.8731 63.9348 80.2484C53.0176 83.6237 46.9037 95.21 50.2789 106.127C53.6542 117.044 65.2406 123.158 76.1578 119.783Z" stroke="#1C30E4" stroke-miterlimit="10"></path><path d="M75.5267 119.048C86.0351 117.085 92.9627 106.975 90.9999 96.4671C89.0371 85.9587 78.9272 79.0311 68.4188 80.9939C57.9103 82.9567 50.9828 93.0666 52.9456 103.575C54.9084 114.083 65.0183 121.011 75.5267 119.048Z" stroke="#1C30E4" stroke-miterlimit="10"></path><path d="M75.2482 117.99C85.1727 117.249 92.6175 108.603 91.8764 98.6782C91.1354 88.7536 82.4893 81.3089 72.5647 82.0499C62.6402 82.7909 55.1954 91.437 55.9364 101.362C56.6774 111.286 65.3236 118.731 75.2482 117.99Z" stroke="#1C30E4" stroke-miterlimit="10"></path><path d="M77.3545 116.639C86.5313 115.799 93.2897 107.678 92.4497 98.5015C91.6097 89.3246 83.4894 82.5663 74.3125 83.4063C65.1356 84.2463 58.3772 92.3666 59.2173 101.543C60.0573 110.72 68.1776 117.479 77.3545 116.639Z" stroke="#1C30E4" stroke-miterlimit="10"></path><path d="M82.7015 114.548C90.7323 111.83 95.0389 103.116 92.3207 95.0855C89.6024 87.0547 80.8886 82.7481 72.8579 85.4663C64.8271 88.1846 60.5205 96.8984 63.2387 104.929C65.957 112.96 74.6708 117.267 82.7015 114.548Z" stroke="#1C30E4" stroke-miterlimit="10"></path><path d="M82.6381 113.722C90.2083 112.103 95.033 104.654 93.4142 97.0838C91.7954 89.5136 84.3462 84.6889 76.776 86.3077C69.2057 87.9265 64.3811 95.3757 65.9999 102.946C67.6187 110.516 75.0678 115.341 82.6381 113.722Z" stroke="#1C30E4" stroke-miterlimit="10"></path><path d="M83.9771 112.482C90.8599 111.187 95.3903 104.559 94.096 97.6757C92.8017 90.7929 86.1728 86.2626 79.29 87.5569C72.4072 88.8512 67.8769 95.48 69.1712 102.363C70.4655 109.246 77.0943 113.776 83.9771 112.482Z" stroke="#1C30E4" stroke-miterlimit="10"></path><path d="M85.8014 111.137C91.9458 109.906 95.9288 103.927 94.6976 97.7824C93.4665 91.638 87.4875 87.655 81.3431 88.8861C75.1988 90.1172 71.2158 96.0962 72.4469 102.241C73.678 108.385 79.657 112.368 85.8014 111.137Z" stroke="#1C30E4" stroke-miterlimit="10"></path><path d="M85.608 110.023C91.1373 109.965 95.5727 105.436 95.5148 99.9064C95.4569 94.3772 90.9276 89.9417 85.3983 89.9996C79.8691 90.0576 75.4337 94.5868 75.4916 100.116C75.5495 105.645 80.0788 110.081 85.608 110.023Z" stroke="#1C30E4" stroke-miterlimit="10"></path><path d="M90.0455 108.276C94.6166 106.839 97.1574 101.969 95.7205 97.3975C94.2836 92.8264 89.4132 90.2857 84.8421 91.7225C80.271 93.1594 77.7302 98.0298 79.1671 102.601C80.604 107.172 85.4744 109.713 90.0455 108.276Z" stroke="#1C30E4" stroke-miterlimit="10"></path><path d="M86.2826 106.667C82.6043 104.961 81.0046 100.597 82.7101 96.9183C84.4156 93.2401 88.7805 91.6404 92.4587 93.3459C96.137 95.0514 97.7367 99.4163 96.0312 103.094C94.3257 106.773 89.9608 108.372 86.2826 106.667Z" stroke="#1C30E4" stroke-miterlimit="10"></path><path d="M88.7771 105.455C85.767 104.06 84.4586 100.489 85.8542 97.4788C87.2498 94.4687 90.8204 93.1603 93.8305 94.5559C96.8407 95.9515 98.149 99.5221 96.7535 102.532C95.3579 105.542 91.7873 106.851 88.7771 105.455Z" stroke="#1C30E4" stroke-miterlimit="10"></path><path d="M91.2714 104.243C88.9312 103.158 87.9124 100.382 88.998 98.0395C90.0837 95.6993 92.86 94.6804 95.202 95.7661C97.5422 96.8518 98.5611 99.6281 97.4754 101.97C96.3898 104.31 93.6135 105.329 91.2714 104.243Z" stroke="#1C30E4" stroke-miterlimit="10"></path><path d="M93.7655 103.032C92.0934 102.256 91.3659 100.272 92.1417 98.6C92.9174 96.9279 94.9013 96.2004 96.5734 96.9761C98.2455 97.7519 98.9729 99.7357 98.1972 101.408C97.4215 103.08 95.4376 103.807 93.7655 103.032Z" stroke="#1C30E4" stroke-miterlimit="10"></path><path d="M96.2596 101.82C95.2556 101.354 94.8195 100.164 95.2853 99.1605C95.7511 98.1565 96.9407 97.7203 97.9447 98.1862C98.9487 98.652 99.3848 99.8415 98.919 100.846C98.4532 101.85 97.2636 102.286 96.2596 101.82Z" stroke="#1C30E4" stroke-miterlimit="10"></path><path d="M98.7538 100.606C98.4198 100.45 98.2732 100.055 98.4291 99.7192C98.585 99.3851 98.9803 99.2385 99.3162 99.3944C99.6521 99.5503 99.7968 99.9456 99.6409 100.281C99.485 100.616 99.0898 100.762 98.7538 100.606Z" stroke="#1C30E4" stroke-miterlimit="10"></path><path d="M101.248 99.3944C101.582 99.5503 101.729 99.9456 101.573 100.281C101.417 100.616 101.022 100.762 100.686 100.606C100.352 100.45 100.205 100.055 100.361 99.7192C100.517 99.3851 100.912 99.2385 101.248 99.3944Z" stroke="#1C30E4" stroke-miterlimit="10"></path><path d="M103.743 98.1822C104.747 98.6481 105.183 99.8376 104.717 100.842C104.251 101.846 103.061 102.282 102.057 101.816C101.053 101.35 100.617 100.161 101.083 99.1566C101.549 98.1526 102.739 97.7164 103.743 98.1822Z" stroke="#1C30E4" stroke-miterlimit="10"></path><path d="M106.234 96.9703C107.907 97.746 108.634 99.7299 107.858 101.402C107.083 103.074 105.099 103.802 103.427 103.026C101.755 102.25 101.027 100.266 101.803 98.5941C102.579 96.922 104.562 96.1945 106.234 96.9703Z" stroke="#1C30E4" stroke-miterlimit="10"></path><path d="M108.729 95.7568C111.069 96.8425 112.088 99.6188 111.002 101.961C109.916 104.301 107.14 105.32 104.798 104.234C102.456 103.149 101.439 100.372 102.525 98.0302C103.61 95.69 106.387 94.6712 108.729 95.7568Z" stroke="#1C30E4" stroke-miterlimit="10"></path><path d="M111.223 94.5451C114.233 95.9407 115.542 99.5113 114.146 102.521C112.75 105.532 109.18 106.84 106.17 105.444C103.16 104.049 101.851 100.478 103.247 97.4681C104.642 94.4579 108.213 93.1496 111.223 94.5451Z" stroke="#1C30E4" stroke-miterlimit="10"></path><path d="M113.718 93.3332C117.396 95.0387 118.995 99.4036 117.29 103.082C115.584 106.76 111.22 108.36 107.541 106.654C103.863 104.949 102.263 100.584 103.969 96.9056C105.674 93.2274 110.039 91.6277 113.718 93.3332Z" stroke="#1C30E4" stroke-miterlimit="10"></path><path d="M113.297 108.636C118.071 108.231 121.614 104.032 121.208 99.2579C120.803 94.4835 116.604 90.9414 111.83 91.3465C107.056 91.7517 103.513 95.9505 103.919 100.725C104.324 105.499 108.523 109.041 113.297 108.636Z" stroke="#1C30E4" stroke-miterlimit="10"></path><path d="M124.403 101.448C125.207 95.9772 121.424 90.8905 115.953 90.0865C110.483 89.2826 105.396 93.0658 104.592 98.5366C103.788 104.007 107.571 109.094 113.042 109.898C118.513 110.702 123.6 106.919 124.403 101.448Z" stroke="#1C30E4" stroke-miterlimit="10"></path><path d="M121.2 89.6957C126.884 92.331 129.358 99.0769 126.721 104.761C124.086 110.446 117.34 112.919 111.655 110.282C105.971 107.647 103.497 100.901 106.134 95.2168C108.77 89.5305 115.516 87.0586 121.2 89.6957Z" stroke="#1C30E4" stroke-miterlimit="10"></path><path d="M120.054 112.552C126.995 111.618 131.865 105.235 130.931 98.294C129.998 91.3531 123.614 86.4831 116.673 87.4167C109.732 88.3502 104.862 94.7337 105.796 101.675C106.729 108.616 113.113 113.486 120.054 112.552Z" stroke="#1C30E4" stroke-miterlimit="10"></path><path d="M134.276 100.941C134.804 93.218 128.971 86.5291 121.248 86.0012C113.524 85.4733 106.835 91.3064 106.307 99.0298C105.779 106.753 111.613 113.442 119.336 113.97C127.059 114.498 133.748 108.665 134.276 100.941Z" stroke="#1C30E4" stroke-miterlimit="10"></path><path d="M124.983 115.092C133.323 113.568 138.848 105.571 137.324 97.2306C135.799 88.8905 127.802 83.3655 119.462 84.8902C111.122 86.4149 105.597 94.4119 107.122 102.752C108.646 111.092 116.643 116.617 124.983 115.092Z" stroke="#1C30E4" stroke-miterlimit="10"></path><path d="M125.822 116.585C134.992 115.666 141.68 107.488 140.762 98.3191C139.843 89.1497 131.666 82.461 122.496 83.3795C113.327 84.2979 106.638 92.4757 107.557 101.645C108.475 110.814 116.653 117.503 125.822 116.585Z" stroke="#1C30E4" stroke-miterlimit="10"></path><path d="M128.267 117.872C138.146 116.671 145.182 107.689 143.981 97.8094C142.78 87.93 133.798 80.8945 123.918 82.0953C114.039 83.2961 107.003 92.2784 108.204 102.158C109.405 112.037 118.387 119.073 128.267 117.872Z" stroke="#1C30E4" stroke-miterlimit="10"></path><path d="M129.809 119.257C140.453 118.272 148.284 108.843 147.298 98.1988C146.312 87.5541 136.884 79.724 126.24 80.7096C115.595 81.6952 107.765 91.1233 108.75 101.768C109.736 112.413 119.164 120.243 129.809 119.257Z" stroke="#1C30E4" stroke-miterlimit="10"></path><path d="M129.956 120.671C141.383 120.671 150.646 111.408 150.646 99.9806C150.646 88.5535 141.383 79.29 129.956 79.29C118.529 79.29 109.265 88.5535 109.265 99.9806C109.265 111.408 118.529 120.671 129.956 120.671Z" stroke="#1C30E4" stroke-miterlimit="10"></path><path d="M147.464 115.554C156.065 106.953 156.065 93.0078 147.464 84.4065C138.863 75.8053 124.917 75.8053 116.316 84.4065C107.715 93.0078 107.715 106.953 116.316 115.554C124.917 124.156 138.863 124.156 147.464 115.554Z" stroke="#1C30E4" stroke-miterlimit="10"></path><path d="M150.34 116.498C159.463 107.375 159.463 92.5833 150.34 83.4602C141.216 74.3372 126.425 74.3372 117.302 83.4602C108.179 92.5833 108.179 107.375 117.302 116.498C126.425 125.621 141.216 125.621 150.34 116.498Z" stroke="#1C30E4" stroke-miterlimit="10"></path><path d="M153.217 117.439C162.861 107.795 162.861 92.1584 153.217 82.5143C143.573 72.8701 127.937 72.8701 118.292 82.5143C108.648 92.1584 108.648 107.795 118.292 117.439C127.937 127.083 143.573 127.083 153.217 117.439Z" stroke="#1C30E4" stroke-miterlimit="10"></path><path d="M156.093 118.382C166.258 108.217 166.258 91.7355 156.093 81.5703C145.928 71.405 129.447 71.405 119.281 81.5703C109.116 91.7355 109.116 108.217 119.281 118.382C129.447 128.547 145.928 128.547 156.093 118.382Z" stroke="#1C30E4" stroke-miterlimit="10"></path><path d="M158.969 119.324C169.655 108.638 169.655 91.3116 158.969 80.6253C148.283 69.9389 130.957 69.9389 120.27 80.6253C109.584 91.3116 109.584 108.638 120.27 119.324C130.957 130.01 148.283 130.01 158.969 119.324Z" stroke="#1C30E4" stroke-miterlimit="10"></path><path d="M161.846 120.268C173.054 109.06 173.054 90.8876 161.846 79.6795C150.638 68.4713 132.466 68.4713 121.258 79.6795C110.049 90.8876 110.049 109.06 121.258 120.268C132.466 131.476 150.638 131.476 161.846 120.268Z" stroke="#1C30E4" stroke-miterlimit="10"></path><path d="M164.723 121.211C176.453 109.482 176.453 90.4652 164.723 78.736C152.994 67.0067 133.977 67.0067 122.248 78.736C110.519 90.4652 110.519 109.482 122.248 121.211C133.977 132.941 152.994 132.941 164.723 121.211Z" stroke="#1C30E4" stroke-miterlimit="10"></path><path d="M145.418 131.34C162.743 131.34 176.787 117.296 176.787 99.9715C176.787 82.6469 162.743 68.6025 145.418 68.6025C128.094 68.6025 114.049 82.6469 114.049 99.9715C114.049 117.296 128.094 131.34 145.418 131.34Z" stroke="#1C30E4" stroke-miterlimit="10"></path><path d="M170.476 123.095C183.248 110.323 183.248 89.6154 170.476 76.8432C157.704 64.0711 136.996 64.0711 124.224 76.8432C111.452 89.6154 111.452 110.323 124.224 123.095C136.996 135.867 157.704 135.867 170.476 123.095Z" stroke="#1C30E4" stroke-miterlimit="10"></path><path d="M173.352 124.039C186.645 110.746 186.645 89.1929 173.352 75.8997C160.059 62.6064 138.506 62.6064 125.213 75.8997C111.92 89.1929 111.92 110.746 125.213 124.039C138.506 137.332 160.059 137.332 173.352 124.039Z" stroke="#1C30E4" stroke-miterlimit="10"></path><path d="M176.23 124.981C190.044 111.167 190.044 88.7695 176.23 74.9552C162.415 61.1409 140.018 61.1409 126.203 74.9552C112.389 88.7695 112.389 111.167 126.203 124.981C140.018 138.796 162.415 138.796 176.23 124.981Z" stroke="#1C30E4" stroke-miterlimit="10"></path><path d="M179.104 125.923C193.439 111.588 193.439 88.3456 179.104 74.0102C164.768 59.6748 141.526 59.6748 127.19 74.0102C112.855 88.3456 112.855 111.588 127.19 125.923C141.526 140.259 164.768 140.259 179.104 125.923Z" stroke="#1C30E4" stroke-miterlimit="10"></path><path d="M181.984 126.867C196.841 112.009 196.841 87.9212 181.984 73.0639C167.127 58.2067 143.038 58.2067 128.181 73.0639C113.324 87.9212 113.324 112.009 128.181 126.867C143.038 141.724 167.127 141.724 181.984 126.867Z" stroke="#1C30E4" stroke-miterlimit="10"></path><path d="M184.858 127.809C200.236 112.43 200.236 87.4973 184.858 72.1189C169.48 56.7406 144.546 56.7406 129.168 72.1189C113.79 87.4973 113.79 112.43 129.168 127.809C144.547 143.187 169.48 143.187 184.858 127.809Z" stroke="#1C30E4" stroke-miterlimit="10"></path><path d="M187.734 128.75C203.634 112.851 203.634 87.0729 187.734 71.1735C171.835 55.2741 146.057 55.2741 130.158 71.1735C114.258 87.0729 114.258 112.851 130.158 128.75C146.057 144.65 171.835 144.65 187.734 128.75Z" stroke="#1C30E4" stroke-miterlimit="10"></path><path d="M128.827 187.734C144.726 171.834 144.726 146.056 128.827 130.157C112.927 114.257 87.1493 114.257 71.2499 130.157C55.3504 146.056 55.3504 171.834 71.2499 187.734C87.1493 203.633 112.927 203.633 128.827 187.734Z" stroke="#1C30E4" stroke-miterlimit="10"></path><path d="M127.881 184.86C143.26 169.481 143.26 144.548 127.881 129.17C112.503 113.791 87.5699 113.791 72.1916 129.17C56.8133 144.548 56.8133 169.481 72.1916 184.86C87.5699 200.238 112.503 200.238 127.881 184.86Z" stroke="#1C30E4" stroke-miterlimit="10"></path><path d="M126.938 181.982C141.795 167.125 141.795 143.036 126.938 128.179C112.081 113.322 87.9925 113.322 73.1353 128.179C58.2781 143.036 58.2781 167.125 73.1353 181.982C87.9925 196.839 112.081 196.839 126.938 181.982Z" stroke="#1C30E4" stroke-miterlimit="10"></path><path d="M125.99 179.105C140.326 164.77 140.326 141.527 125.99 127.192C111.655 112.856 88.4126 112.856 74.0772 127.192C59.7418 141.527 59.7418 164.77 74.0772 179.105C88.4126 193.44 111.655 193.44 125.99 179.105Z" stroke="#1C30E4" stroke-miterlimit="10"></path><path d="M125.045 176.229C138.859 162.415 138.859 140.017 125.045 126.203C111.231 112.388 88.8333 112.388 75.0189 126.203C61.2046 140.017 61.2046 162.415 75.0189 176.229C88.8333 190.043 111.231 190.043 125.045 176.229Z" stroke="#1C30E4" stroke-miterlimit="10"></path><path d="M124.102 173.352C137.395 160.059 137.395 138.506 124.102 125.213C110.809 111.92 89.2563 111.92 75.9631 125.213C62.6699 138.506 62.6699 160.059 75.9631 173.352C89.2563 186.646 110.809 186.646 124.102 173.352Z" stroke="#1C30E4" stroke-miterlimit="10"></path><path d="M123.157 170.476C135.929 157.704 135.929 136.996 123.157 124.224C110.385 111.452 89.677 111.452 76.9048 124.224C64.1327 136.996 64.1327 157.704 76.9048 170.476C89.677 183.248 110.385 183.248 123.157 170.476Z" stroke="#1C30E4" stroke-miterlimit="10"></path><path d="M122.211 167.6C134.461 155.35 134.461 135.488 122.211 123.238C109.96 110.987 90.0985 110.987 77.8482 123.238C65.5979 135.488 65.5979 155.35 77.8482 167.6C90.0985 179.85 109.96 179.85 122.211 167.6Z" stroke="#1C30E4" stroke-miterlimit="10"></path><path d="M121.266 164.722C132.995 152.992 132.995 133.975 121.266 122.246C109.537 110.517 90.5197 110.517 78.7904 122.246C67.0612 133.975 67.0612 152.992 78.7904 164.722C90.5197 176.451 109.537 176.451 121.266 164.722Z" stroke="#1C30E4" stroke-miterlimit="10"></path><path d="M120.32 161.847C131.529 150.639 131.529 132.467 120.32 121.259C109.112 110.051 90.9403 110.051 79.7321 121.259C68.524 132.467 68.524 150.639 79.7322 161.847C90.9403 173.056 109.112 173.056 120.32 161.847Z" stroke="#1C30E4" stroke-miterlimit="10"></path><path d="M119.373 158.968C130.06 148.282 130.06 130.956 119.373 120.27C108.687 109.583 91.3609 109.583 80.6745 120.27C69.9882 130.956 69.9882 148.282 80.6745 158.968C91.3609 169.655 108.687 169.655 119.373 158.968Z" stroke="#1C30E4" stroke-miterlimit="10"></path><path d="M118.431 156.093C128.597 145.928 128.597 129.446 118.431 119.281C108.266 109.116 91.7849 109.116 81.6197 119.281C71.4544 129.446 71.4544 145.928 81.6197 156.093C91.7849 166.258 108.266 166.258 118.431 156.093Z" stroke="#1C30E4" stroke-miterlimit="10"></path><path d="M117.486 153.217C127.13 143.573 127.13 127.936 117.486 118.292C107.842 108.648 92.2056 108.648 82.5614 118.292C72.9173 127.936 72.9173 143.573 82.5614 153.217C92.2056 162.861 107.842 162.861 117.486 153.217Z" stroke="#1C30E4" stroke-miterlimit="10"></path><path d="M116.54 150.341C125.663 141.218 125.663 126.427 116.54 117.303C107.417 108.18 92.6252 108.18 83.5022 117.303C74.3791 126.427 74.3791 141.218 83.5022 150.341C92.6252 159.464 107.417 159.464 116.54 150.341Z" stroke="#1C30E4" stroke-miterlimit="10"></path><path d="M115.595 147.462C124.196 138.861 124.196 124.915 115.595 116.314C106.994 107.713 93.0482 107.713 84.447 116.314C75.8457 124.915 75.8457 138.861 84.447 147.462C93.0482 156.063 106.994 156.063 115.595 147.462Z" stroke="#1C30E4" stroke-miterlimit="10"></path><path d="M114.649 144.586C122.729 136.506 122.729 123.406 114.649 115.326C106.568 107.245 93.4679 107.245 85.3878 115.326C77.3076 123.406 77.3076 136.506 85.3878 144.586C93.4679 152.667 106.568 152.667 114.649 144.586Z" stroke="#1C30E4" stroke-miterlimit="10"></path><path d="M113.705 141.71C121.264 134.151 121.264 121.896 113.705 114.337C106.146 106.777 93.8905 106.777 86.3314 114.337C78.7724 121.896 78.7724 134.151 86.3314 141.71C93.8905 149.269 106.146 149.269 113.705 141.71Z" stroke="#1C30E4" stroke-miterlimit="10"></path><path d="M112.76 138.834C119.798 131.797 119.798 120.387 112.76 113.35C105.723 106.312 94.3135 106.312 87.2763 113.35C80.239 120.387 80.239 131.797 87.2763 138.834C94.3135 145.871 105.723 145.871 112.76 138.834Z" stroke="#1C30E4" stroke-miterlimit="10"></path><path d="M115.034 131.443C119.052 123.149 115.586 113.169 107.293 109.151C98.9995 105.133 89.0193 108.599 85.0013 116.892C80.9833 125.185 84.449 135.165 92.7422 139.183C101.035 143.201 111.016 139.736 115.034 131.443Z" stroke="#1C30E4" stroke-miterlimit="10"></path><path d="M114.235 127.993C117.424 120.137 113.642 111.183 105.787 107.994C97.9314 104.804 88.9775 108.586 85.7878 116.442C82.598 124.297 86.3803 133.251 94.2357 136.441C102.091 139.63 111.045 135.848 114.235 127.993Z" stroke="#1C30E4" stroke-miterlimit="10"></path><path d="M111.889 127.737C116.001 121.179 114.019 112.528 107.46 108.415C100.901 104.303 92.2506 106.286 88.138 112.844C84.0253 119.403 86.0082 128.054 92.5668 132.166C99.1255 136.279 107.776 134.296 111.889 127.737Z" stroke="#1C30E4" stroke-miterlimit="10"></path><path d="M111.244 124.245C114.494 118.041 112.099 110.378 105.896 107.127C99.6922 103.877 92.0284 106.272 88.7783 112.475C85.5283 118.679 87.9226 126.343 94.1262 129.593C100.33 132.843 107.994 130.449 111.244 124.245Z" stroke="#1C30E4" stroke-miterlimit="10"></path><path d="M110.304 121.2C107.669 126.884 100.923 129.358 95.2384 126.721C89.5541 124.086 87.0803 117.34 89.7174 111.655C92.3526 105.971 99.0985 103.497 104.783 106.134C110.469 108.77 112.941 115.516 110.304 121.2Z" stroke="#1C30E4" stroke-miterlimit="10"></path><path d="M109.092 118.706C106.767 123.722 100.815 125.903 95.7991 123.577C90.7828 121.252 88.6022 115.3 90.9276 110.284C93.2529 105.268 99.2045 103.087 104.221 105.412C109.237 107.738 111.42 113.689 109.092 118.706Z" stroke="#1C30E4" stroke-miterlimit="10"></path><path d="M107.881 116.211C105.865 120.559 100.706 122.449 96.3596 120.433C92.0114 118.418 90.1222 113.259 92.1376 108.912C94.153 104.564 99.3103 102.675 103.659 104.69C108.007 106.706 109.896 111.863 107.881 116.211Z" stroke="#1C30E4" stroke-miterlimit="10"></path><path d="M106.667 113.717C104.961 117.395 100.597 118.995 96.9183 117.29C93.2401 115.584 91.6404 111.219 93.3459 107.541C95.0514 103.863 99.4163 102.263 103.094 103.968C106.773 105.674 108.372 110.039 106.667 113.717Z" stroke="#1C30E4" stroke-miterlimit="10"></path><path d="M105.455 111.223C104.06 114.233 100.489 115.542 97.4788 114.146C94.4687 112.75 93.1603 109.18 94.5559 106.17C95.9515 103.16 99.5221 101.851 102.532 103.247C105.542 104.642 106.851 108.213 105.455 111.223Z" stroke="#1C30E4" stroke-miterlimit="10"></path><path d="M104.243 108.729C103.157 111.069 100.381 112.088 98.039 111.002C95.6988 109.916 94.68 107.14 95.7656 104.798C96.8513 102.456 99.6276 101.439 101.97 102.525C104.31 103.61 105.329 106.387 104.243 108.729Z" stroke="#1C30E4" stroke-miterlimit="10"></path><path d="M103.031 106.234C102.255 107.907 100.272 108.634 98.5995 107.858C96.9274 107.083 96.1999 105.099 96.9756 103.427C97.7514 101.755 99.7352 101.027 101.407 101.803C103.079 102.579 103.807 104.562 103.031 106.234Z" stroke="#1C30E4" stroke-miterlimit="10"></path><path d="M101.819 103.742C101.354 104.746 100.164 105.182 99.16 104.716C98.156 104.251 97.7199 103.061 98.1857 102.057C98.6515 101.053 99.8411 100.617 100.845 101.083C101.849 101.548 102.285 102.738 101.819 103.742Z" stroke="#1C30E4" stroke-miterlimit="10"></path><path d="M100.606 101.248C100.45 101.582 100.055 101.729 99.7187 101.573C99.3846 101.417 99.238 101.022 99.3939 100.686C99.5498 100.35 99.9451 100.205 100.281 100.361C100.615 100.517 100.762 100.912 100.606 101.248Z" stroke="#1C30E4" stroke-miterlimit="10"></path><path d="M99.3939 98.7538C99.5498 98.4198 99.9451 98.2732 100.281 98.4291C100.615 98.585 100.762 98.9803 100.606 99.3162C100.45 99.6502 100.055 99.7968 99.7187 99.6409C99.3846 99.485 99.238 99.0898 99.3939 98.7538Z" stroke="#1C30E4" stroke-miterlimit="10"></path><path d="M98.1822 96.2596C98.6481 95.2556 99.8376 94.8195 100.842 95.2853C101.846 95.7511 102.282 96.9407 101.816 97.9447C101.35 98.9487 100.161 99.3848 99.1566 98.919C98.1526 98.4532 97.7164 97.2636 98.1822 96.2596Z" stroke="#1C30E4" stroke-miterlimit="10"></path><path d="M96.9703 93.7655C97.746 92.0934 99.7299 91.3659 101.402 92.1417C103.074 92.9174 103.802 94.9013 103.026 96.5734C102.25 98.2455 100.266 98.9729 98.5941 98.1972C96.922 97.4215 96.1945 95.4376 96.9703 93.7655Z" stroke="#1C30E4" stroke-miterlimit="10"></path><path d="M95.7563 91.2709C96.842 88.9307 99.6183 87.9119 101.96 88.9975C104.301 90.0832 105.319 92.8595 104.234 95.2016C103.148 97.5417 100.372 98.5606 98.0297 97.4749C95.6895 96.3893 94.6707 93.613 95.7563 91.2709Z" stroke="#1C30E4" stroke-miterlimit="10"></path><path d="M94.5447 88.7767C95.9402 85.7665 99.5108 84.4582 102.521 85.8537C105.531 87.2493 106.839 90.8199 105.444 93.8301C104.048 96.8402 100.478 98.1486 97.4676 96.753C94.4574 95.3574 93.1491 91.7868 94.5447 88.7767Z" stroke="#1C30E4" stroke-miterlimit="10"></path><path d="M93.3327 86.2826C95.0382 82.6043 99.4031 81.0046 103.081 82.7101C106.76 84.4156 108.359 88.7805 106.654 92.4587C104.948 96.137 100.583 97.7367 96.9051 96.0312C93.2269 94.3257 91.6272 89.9608 93.3327 86.2826Z" stroke="#1C30E4" stroke-miterlimit="10"></path><path d="M92.121 83.7883C94.1364 79.4401 99.2937 77.5509 103.642 79.5663C107.99 81.5817 109.879 86.7391 107.864 91.0873C105.849 95.4354 100.691 97.3247 96.343 95.3092C91.9948 93.2938 90.1056 88.1346 92.121 83.7883Z" stroke="#1C30E4" stroke-miterlimit="10"></path><path d="M90.9071 81.2942C93.2324 76.2779 99.184 74.0973 104.2 76.4227C109.217 78.748 111.399 84.6997 109.072 89.7159C106.746 94.7322 100.795 96.9147 95.7786 94.5875C90.7623 92.2621 88.5817 86.3105 90.9071 81.2942Z" stroke="#1C30E4" stroke-miterlimit="10"></path><path d="M110.667 87.3916C112.781 81.4923 109.712 74.9966 103.812 72.8832C97.9128 70.7698 91.4172 73.8389 89.3038 79.7382C87.1903 85.6376 90.2594 92.1332 96.1588 94.2466C102.058 96.3601 108.554 93.291 110.667 87.3916Z" stroke="#1C30E4" stroke-miterlimit="10"></path><path d="M112.608 82.8521C113.278 75.8808 108.17 69.6863 101.199 69.0162C94.2277 68.3462 88.0331 73.4544 87.3631 80.4257C86.6931 87.397 91.8013 93.5915 98.7726 94.2615C105.744 94.9316 111.938 89.8234 112.608 82.8521Z" stroke="#1C30E4" stroke-miterlimit="10"></path><path d="M113.814 81.9629C115.064 74.3231 109.883 67.1167 102.244 65.867C94.6037 64.6173 87.3973 69.7975 86.1476 77.4373C84.8979 85.0772 90.0781 92.2836 97.7179 93.5333C105.358 94.783 112.564 89.6028 113.814 81.9629Z" stroke="#1C30E4" stroke-miterlimit="10"></path><path d="M115.015 80.9004C116.741 72.5998 111.412 64.4711 103.111 62.7446C94.8105 61.018 86.6818 66.3474 84.9553 74.6481C83.2287 82.9487 88.5581 91.0774 96.8588 92.8039C105.159 94.5305 113.288 89.2011 115.015 80.9004Z" stroke="#1C30E4" stroke-miterlimit="10"></path><path d="M100.8 92.5103C110.004 92.0586 117.099 84.2309 116.647 75.0267C116.196 65.8225 108.368 58.7273 99.1637 59.1791C89.9595 59.6308 82.8643 67.4585 83.316 76.6627C83.7678 85.8669 91.5955 92.9621 100.8 92.5103Z" stroke="#1C30E4" stroke-miterlimit="10"></path><path d="M117.654 77.4087C119.59 67.6467 113.247 58.1633 103.485 56.2268C93.7226 54.2904 84.2391 60.6342 82.3027 70.3962C80.3662 80.1581 86.71 89.6416 96.472 91.5781C106.234 93.5145 115.717 87.1707 117.654 77.4087Z" stroke="#1C30E4" stroke-miterlimit="10"></path><path d="M118.346 78.0788C121.719 67.9346 116.229 56.9771 106.085 53.6045C95.941 50.232 84.9835 55.7215 81.611 65.8657C78.2384 76.0099 83.7279 86.9674 93.8721 90.34C104.016 93.7125 114.974 88.223 118.346 78.0788Z" stroke="#1C30E4" stroke-miterlimit="10"></path><path d="M114.611 84.6758C122.691 76.5957 122.691 63.4951 114.611 55.415C106.53 47.3348 93.4298 47.3348 85.3497 55.415C77.2695 63.4951 77.2695 76.5957 85.3497 84.6758C93.4298 92.756 106.53 92.756 114.611 84.6758Z" stroke="#1C30E4" stroke-miterlimit="10"></path><path d="M115.554 83.6853C124.155 75.084 124.155 61.1386 115.554 52.5374C106.953 43.9361 93.0072 43.9361 84.406 52.5374C75.8047 61.1386 75.8047 75.084 84.406 83.6853C93.0072 92.2865 106.953 92.2865 115.554 83.6853Z" stroke="#1C30E4" stroke-miterlimit="10"></path><path d="M123.298 67.6076C124.086 54.7297 114.285 43.6516 101.407 42.8639C88.5292 42.0763 77.4511 51.8773 76.6635 64.7553C75.8758 77.6332 85.6769 88.7113 98.5548 89.4989C111.433 90.2866 122.511 80.4855 123.298 67.6076Z" stroke="#1C30E4" stroke-miterlimit="10"></path><path d="M117.44 81.7089C127.084 72.0647 127.084 56.4284 117.44 46.7843C107.796 37.1401 92.1597 37.1401 82.5155 46.7843C72.8714 56.4284 72.8714 72.0647 82.5155 81.7089C92.1597 91.353 107.796 91.353 117.44 81.7089Z" stroke="#1C30E4" stroke-miterlimit="10"></path><path d="M118.382 80.7193C128.547 70.554 128.547 54.0729 118.382 43.9077C108.217 33.7424 91.7356 33.7424 81.5704 43.9077C71.4051 54.0729 71.4051 70.554 81.5704 80.7193C91.7356 90.8845 108.217 90.8845 118.382 80.7193Z" stroke="#1C30E4" stroke-miterlimit="10"></path><path d="M119.324 79.7302C130.01 69.0438 130.01 51.7179 119.324 41.0315C108.638 30.3452 91.3116 30.3452 80.6252 41.0315C69.9389 51.7179 69.9389 69.0438 80.6252 79.7302C91.3115 90.4165 108.638 90.4165 119.324 79.7302Z" stroke="#1C30E4" stroke-miterlimit="10"></path><path d="M120.267 78.7439C131.475 67.5357 131.475 49.3637 120.267 38.1555C109.059 26.9474 90.8871 26.9474 79.6789 38.1555C68.4708 49.3637 68.4708 67.5357 79.6789 78.7439C90.8871 89.952 109.059 89.952 120.267 78.7439Z" stroke="#1C30E4" stroke-miterlimit="10"></path><path d="M121.21 77.7523C132.939 66.0231 132.939 47.0062 121.21 35.277C109.48 23.5477 90.4635 23.5477 78.7343 35.277C67.005 47.0062 67.005 66.0231 78.7343 77.7523C90.4635 89.4816 109.48 89.4816 121.21 77.7523Z" stroke="#1C30E4" stroke-miterlimit="10"></path><path d="M122.153 76.7652C134.404 64.5148 134.404 44.6531 122.153 32.4028C109.903 20.1525 90.0414 20.1525 77.7911 32.4028C65.5407 44.6531 65.5407 64.5148 77.7911 76.7652C90.0414 89.0155 109.903 89.0155 122.153 76.7652Z" stroke="#1C30E4" stroke-miterlimit="10"></path><path d="M123.095 75.7759C135.868 63.0038 135.868 42.296 123.095 29.5239C110.323 16.7517 89.6155 16.7517 76.8433 29.5239C64.0712 42.296 64.0712 63.0038 76.8433 75.7759C89.6155 88.5481 110.323 88.5481 123.095 75.7759Z" stroke="#1C30E4" stroke-miterlimit="10"></path><path d="M124.039 74.7873C137.332 61.4941 137.332 39.9415 124.039 26.6482C110.745 13.355 89.1929 13.355 75.8996 26.6482C62.6064 39.9415 62.6064 61.4941 75.8996 74.7873C89.1929 88.0806 110.745 88.0806 124.039 74.7873Z" stroke="#1C30E4" stroke-miterlimit="10"></path><path d="M99.9671 84.1597C119.503 84.1597 135.341 68.3223 135.341 48.7859C135.341 29.2495 119.503 13.4121 99.9671 13.4121C80.4307 13.4121 64.5933 29.2495 64.5933 48.7859C64.5933 68.3223 80.4307 84.1597 99.9671 84.1597Z" stroke="#1C30E4" stroke-miterlimit="10"></path><path d="M125.921 72.8096C140.257 58.4742 140.257 35.2319 125.921 20.8964C111.586 6.56102 88.3438 6.56103 74.0083 20.8964C59.6729 35.2319 59.6729 58.4742 74.0083 72.8096C88.3438 87.145 111.586 87.145 125.921 72.8096Z" stroke="#1C30E4" stroke-miterlimit="10"></path><path d="M126.868 71.8204C141.725 56.9631 141.725 32.8748 126.868 18.0175C112.011 3.1603 87.9222 3.1603 73.065 18.0175C58.2077 32.8748 58.2077 56.9631 73.065 71.8204C87.9222 86.6776 112.011 86.6776 126.868 71.8204Z" stroke="#1C30E4" stroke-miterlimit="10"></path><path d="M127.809 70.8322C143.187 55.4539 143.187 30.5207 127.809 15.1424C112.43 -0.23596 87.4972 -0.23596 72.1189 15.1424C56.7405 30.5207 56.7405 55.4539 72.1188 70.8322C87.4972 86.2106 112.43 86.2106 127.809 70.8322Z" stroke="#1C30E4" stroke-miterlimit="10"></path><path d="M128.751 69.8426C144.65 53.9432 144.65 28.1652 128.751 12.2658C112.851 -3.63367 87.0731 -3.63367 71.1737 12.2658C55.2743 28.1652 55.2743 53.9432 71.1737 69.8426C87.0731 85.7421 112.851 85.7421 128.751 69.8426Z" stroke="#1C30E4" stroke-miterlimit="10"></path></g><defs><clipPath id="clip0_348_15768"><rect width="200" height="200" fill="white"></rect></clipPath></defs></svg> 